<svg width="20" height="20" xmlns="http://www.w3.org/2000/svg"><path d="M9.346.181a2.596 2.596 0 0 0-1.24.669 2.539 2.539 0 0 0-.773 1.326c-.122.508-.07 1.167.13 1.631l.067.157L5.857 5.49 3.824 7.346l-.36.33-.26-.122c-.628-.295-1.247-.29-1.867.016-.52.256-.916.74-1.072 1.31-.101.371-.083.896.045 1.253a2.131 2.131 0 0 0 1.99 1.399 2.113 2.113 0 0 0 1.866-1.182c.163-.341.215-.564.215-.917 0-.313-.05-.557-.17-.831l-.08-.182.076-.072c.042-.04.943-.863 2.002-1.828l1.926-1.755.185.14.185.14-.022.152-.577 3.95-.556 3.796-.317.064a3.497 3.497 0 0 0-2.61 2.343 2.922 2.922 0 0 0-.167 1.083c.002.922.317 1.712.95 2.382a3.461 3.461 0 0 0 1.679 1.005c.296.081.389.091.865.091s.569-.01.865-.091c1.445-.393 2.455-1.571 2.618-3.05.037-.34.006-.85-.067-1.107-.018-.061-.021-.121-.007-.133a238.05 238.05 0 0 1 3.875-1.897c.011 0 .148.124.304.275 1.474 1.433 3.867.786 4.436-1.198.061-.214.074-.34.072-.71-.001-.399-.012-.482-.094-.733a2.577 2.577 0 0 0-.477-.904 2.784 2.784 0 0 0-1.408-.916c-.154-.043-.343-.06-.65-.062-.474-.002-.659.032-1.045.19-.207.085-.251.093-.288.054-.025-.025-.93-1.175-2.012-2.556l-1.967-2.511.132-.173c.6-.783.704-1.862.268-2.772A2.688 2.688 0 0 0 10.683.233C10.385.138 9.66.11 9.346.181M13.1 7.702a730.432 730.432 0 0 1 2.013 2.576c.021.031-.014.11-.111.253-.376.553-.539 1.286-.427 1.913l.047.261-.369.186c-.441.221-3.489 1.709-3.501 1.709-.005 0-.074-.094-.154-.208a3.76 3.76 0 0 0-.948-.897c-.174-.114-.317-.218-.317-.232 0-.024 1.126-7.741 1.142-7.825.005-.025.133-.087.285-.138.153-.051.286-.102.297-.113.012-.011.03-.02.04-.019.011.001.912 1.141 2.003 2.534" fill="black" fill-rule="evenodd"/></svg>